<svg width="62" height="61" viewBox="0 0 62 61" fill="none" xmlns="http://www.w3.org/2000/svg">
<g id="camera_alt">
<g id="Vector">
<path d="M31.2439 41.0268C35.7197 41.0268 39.348 37.3985 39.348 32.9227C39.348 28.447 35.7197 24.8187 31.2439 24.8187C26.7682 24.8187 23.1398 28.447 23.1398 32.9227C23.1398 37.3985 26.7682 41.0268 31.2439 41.0268Z" fill="#D2D2D2"/>
<path d="M23.6463 7.59753L19.0118 12.6626H10.9837C8.19797 12.6626 5.9187 14.9418 5.9187 17.7276V48.1179C5.9187 50.9036 8.19797 53.1829 10.9837 53.1829H51.5041C54.2898 53.1829 56.5691 50.9036 56.5691 48.1179V17.7276C56.5691 14.9418 54.2898 12.6626 51.5041 12.6626H43.476L38.8415 7.59753H23.6463ZM31.2439 45.5853C24.2541 45.5853 18.5813 39.9125 18.5813 32.9227C18.5813 25.933 24.2541 20.2601 31.2439 20.2601C38.2337 20.2601 43.9065 25.933 43.9065 32.9227C43.9065 39.9125 38.2337 45.5853 31.2439 45.5853Z" fill="#D2D2D2"/>
</g>
</g>
</svg>
