<svg width="35" height="35" viewBox="0 0 35 35" fill="none" xmlns="http://www.w3.org/2000/svg">
<g id="cancel">
<path id="Vector" d="M17.5 2.91663C9.43538 2.91663 2.91663 9.43538 2.91663 17.5C2.91663 25.5645 9.43538 32.0833 17.5 32.0833C25.5645 32.0833 32.0833 25.5645 32.0833 17.5C32.0833 9.43538 25.5645 2.91663 17.5 2.91663ZM23.7708 23.7708C23.202 24.3395 22.2833 24.3395 21.7145 23.7708L17.5 19.5562L13.2854 23.7708C12.7166 24.3395 11.7979 24.3395 11.2291 23.7708C10.6604 23.202 10.6604 22.2833 11.2291 21.7145L15.4437 17.5L11.2291 13.2854C10.6604 12.7166 10.6604 11.7979 11.2291 11.2291C11.7979 10.6604 12.7166 10.6604 13.2854 11.2291L17.5 15.4437L21.7145 11.2291C22.2833 10.6604 23.202 10.6604 23.7708 11.2291C24.3395 11.7979 24.3395 12.7166 23.7708 13.2854L19.5562 17.5L23.7708 21.7145C24.325 22.2687 24.325 23.202 23.7708 23.7708Z" fill="#CACACA"/>
</g>
</svg>
