<svg width="59" height="59" viewBox="0 0 59 59" fill="none" xmlns="http://www.w3.org/2000/svg">
<g id="close">
<path id="Vector" d="M44.9875 14.0371C44.0288 13.0784 42.48 13.0784 41.5213 14.0371L29.5 26.0338L17.4788 14.0125C16.52 13.0538 14.9713 13.0538 14.0125 14.0125C13.0538 14.9713 13.0538 16.52 14.0125 17.4788L26.0338 29.5L14.0125 41.5213C13.0538 42.48 13.0538 44.0288 14.0125 44.9875C14.9713 45.9463 16.52 45.9463 17.4788 44.9875L29.5 32.9663L41.5213 44.9875C42.48 45.9463 44.0288 45.9463 44.9875 44.9875C45.9463 44.0288 45.9463 42.48 44.9875 41.5213L32.9663 29.5L44.9875 17.4788C45.9217 16.5446 45.9217 14.9713 44.9875 14.0371Z" fill="#272727"/>
</g>
</svg>
