<svg width="35" height="35" viewBox="0 0 35 35" fill="none" xmlns="http://www.w3.org/2000/svg">
<g id="close">
<path id="Vector" d="M26.6875 8.32713C26.1188 7.75838 25.2 7.75838 24.6313 8.32713L17.5 15.4438L10.3688 8.31255C9.80005 7.7438 8.8813 7.7438 8.31255 8.31255C7.7438 8.8813 7.7438 9.80005 8.31255 10.3688L15.4438 17.5L8.31255 24.6313C7.7438 25.2 7.7438 26.1188 8.31255 26.6875C8.8813 27.2563 9.80005 27.2563 10.3688 26.6875L17.5 19.5563L24.6313 26.6875C25.2 27.2563 26.1188 27.2563 26.6875 26.6875C27.2563 26.1188 27.2563 25.2 26.6875 24.6313L19.5563 17.5L26.6875 10.3688C27.2417 9.81463 27.2417 8.8813 26.6875 8.32713Z" fill="#797979"/>
</g>
</svg>
