<svg width="173" height="79" viewBox="0 0 173 79" fill="none" xmlns="http://www.w3.org/2000/svg">
<g id="_&#235;&#160;&#136;&#236;&#157;&#180;&#236;&#150;&#180;_1" clip-path="url(#clip0_63_72)">
<path id="Vector" d="M30.9606 43.1143C34.0363 43.1143 36.0755 43.8866 36.0755 46.4678V60.9793C42.7012 61.5009 50.2482 62.0497 55.4783 61.1418C58.4998 60.6473 59.7125 62.131 59.8751 65.376C63.0389 76.9744 24.7007 66.7107 14.5319 70.491C8.82757 72.0966 7.64877 62.0429 13.1024 61.257C15.853 60.7625 19.8636 60.2679 25.8524 60.3763V46.4678C25.8524 43.9408 27.8849 43.1143 30.9606 43.1143Z" fill="#272727"/>
<path id="Vector_2" d="M43.4938 30.6421C38.9412 31.1908 1.35503 34.3275 4.38333 24.3755C4.82369 21.4081 5.97539 19.7009 9.60664 20.419C17.9599 22.1195 36.4007 21.9569 44.3203 20.6968C52.1248 19.4841 55.4783 22.7834 55.0921 28.7181C54.8143 32.8371 54.8143 41.0819 55.0921 46.854C55.2005 49.5503 53.0055 50.3159 49.7062 50.3159C46.4069 50.3159 45.0317 49.5435 44.8691 46.854C44.5913 42.071 44.5913 34.8695 44.8691 31.7396C44.9233 30.8047 44.4829 30.4727 43.4938 30.6421Z" fill="#272727"/>
<path id="Vector_3" d="M79.7113 54.3332C79.4945 48.507 79.6029 41.529 79.8739 36.5225C79.9823 34.5985 81.3576 33.8871 84.2707 33.8871C87.1838 33.8871 88.5049 34.4901 88.3897 36.4141C88.112 41.3597 88.0036 48.2834 88.2271 54.1097L89.3247 53.8319C91.9058 53.1206 93.6672 54.4349 93.884 58.2287C94.0466 61.3586 93.1727 62.6255 90.1444 63.1201C86.5741 63.723 82.5025 64.055 77.4486 63.2827C73.6005 62.6797 70.0302 62.4019 66.731 62.9507C64.1498 63.3368 62.3884 61.5754 62.28 58.5539C62.1716 55.424 63.2691 53.8793 66.0738 53.6626L66.7852 53.6084C66.5074 47.7821 66.6226 40.7499 66.9477 35.967C67.1103 33.6026 68.4314 32.9455 71.3445 32.9455C74.2577 32.9455 75.6329 33.44 75.4636 35.8044C75.1316 40.6957 75.0232 47.7889 75.301 53.7235L77.7738 54.0555L79.6978 54.3332H79.7113ZM88.7759 22.5124C91.3571 21.9636 93.1185 23.1153 93.3353 26.9092C93.4979 30.0391 92.6239 31.306 89.5956 31.8005C86.0254 32.4035 81.9538 32.7354 77.9973 31.9631C74.1493 31.1908 70.0302 31.0824 66.731 31.6312C64.1498 32.0173 62.28 30.5337 62.28 27.2344C62.28 23.9351 63.5468 22.6208 66.0738 22.343C69.8135 21.9569 73.9325 21.8485 78.3293 22.7292C82.0147 23.4405 86.1879 23.0611 88.7759 22.5124ZM102.136 72.0288C99.2225 72.0288 97.1901 71.9746 97.0275 68.4585C96.4788 56.3657 96.4788 34.2733 97.0275 22.1804C97.1901 18.6644 99.2293 18.0614 102.136 18.0614C105.042 18.0614 107.413 18.5018 107.244 22.0178C107.081 26.0827 106.912 31.2518 106.858 36.8003H110.32C112.846 36.8003 113.395 38.5007 113.395 41.4139C113.395 44.327 112.846 46.0342 110.32 46.0342H106.858C106.858 54.2248 106.966 62.3613 107.244 68.1876C107.406 71.7036 105.042 72.0356 102.136 72.0356V72.0288Z" fill="#272727"/>
<path id="Vector_4" d="M116.336 24.0502C116.173 20.5342 118.537 19.6534 121.444 19.6534C124.35 19.6534 126.389 19.9854 126.552 23.5015C126.775 28.3386 126.83 33.5077 126.714 38.5075C127.155 38.2839 127.704 38.1213 128.307 38.1213H133.916C135.068 37.4642 135.562 35.9805 135.562 33.9413C135.562 30.8114 135.176 29.3819 133.306 29.3819H130.285C128.415 29.3819 127.866 27.7357 127.975 24.4906C128.083 21.2455 128.964 20.2564 131.768 20.2564H136.057C141.057 20.2564 145.013 21.7401 145.013 30.0933C145.013 33.7178 144.464 36.4683 143.197 38.1755C144.518 38.5075 145.338 39.9369 145.338 42.7959C145.338 45.4922 144.403 47.4704 140.941 47.4704H128.849C127.527 47.4704 126.593 47.0301 125.99 46.2578C125.163 47.6872 123.517 47.8498 121.43 47.8498C118.517 47.8498 116.153 46.9691 116.322 43.453C116.6 36.8545 116.6 30.6488 116.322 24.0502H116.336Z" fill="#272727"/>
<path id="Vector_5" d="M156.455 50.2684C153.542 50.2684 151.51 50.2278 151.347 47.5788C151.069 42.6197 151.069 27.7154 151.347 22.7495C151.51 20.1006 153.549 19.6467 156.455 19.6467C159.362 19.6467 161.733 19.9786 161.564 22.6208C161.286 27.5799 161.286 42.403 161.564 47.362C161.726 50.011 159.362 50.2549 156.455 50.2549V50.2684Z" fill="#272727"/>
<g id="Group">
<path id="Vector_6" d="M149.383 52.0366C141.355 52.0366 135.528 56.928 135.528 64.8408C135.528 72.7537 141.355 77.6451 149.383 77.6451C157.411 77.6451 163.23 72.7537 163.23 64.8408C163.23 56.928 157.404 52.0366 149.383 52.0366ZM149.383 71.0533C145.589 71.0533 142.676 68.5263 142.676 64.8408C142.676 61.1554 145.589 58.6284 149.383 58.6284C153.176 58.6284 156.09 61.2638 156.09 64.8408C156.09 68.4179 153.176 71.0533 149.383 71.0533Z" fill="#272727"/>
<path id="Vector_7" d="M149.383 79C140.291 79 134.173 73.3093 134.173 64.8409C134.173 56.3725 140.284 50.6817 149.383 50.6817C158.481 50.6817 164.585 56.3725 164.585 64.8409C164.585 73.3093 158.474 79 149.383 79ZM149.383 53.3916C141.788 53.3916 136.883 57.8832 136.883 64.8409C136.883 71.7985 141.788 76.2901 149.383 76.2901C156.977 76.2901 161.875 71.7985 161.875 64.8409C161.875 57.8832 156.97 53.3916 149.383 53.3916ZM149.383 72.4082C144.715 72.4082 141.321 69.2241 141.321 64.8409C141.321 60.4576 144.789 57.2735 149.383 57.2735C153.976 57.2735 157.444 60.5254 157.444 64.8409C157.444 69.1564 154.057 72.4082 149.383 72.4082ZM149.383 59.9834C146.334 59.9834 144.031 62.07 144.031 64.8409C144.031 67.6117 146.232 69.6983 149.383 69.6983C152.533 69.6983 154.735 67.6998 154.735 64.8409C154.735 61.9819 152.431 59.9834 149.383 59.9834Z" fill="#272727"/>
</g>
<path id="Vector_8" d="M11.9372 10.7514C8.81401 14.3691 5.68409 17.9936 2.56095 21.6113C2.10704 22.133 1.65313 22.6614 1.19923 23.1831C-0.297985 24.9174 -0.514776 27.4579 1.19923 29.1719C4.24108 32.2138 7.2897 35.2624 10.3315 38.3042C10.7787 38.7514 11.219 39.1917 11.6662 39.6388C13.2311 41.2038 16.1104 41.3258 17.655 39.6388C19.1997 37.9519 19.3284 35.3234 17.655 33.65C14.6132 30.6081 11.5645 27.5595 8.5227 24.5177C8.07557 24.0705 7.63521 23.6302 7.18808 23.1831V29.1719C10.3112 25.5542 13.4411 21.9297 16.5643 18.312C17.0182 17.7904 17.4721 17.262 17.926 16.7403C19.369 15.0669 19.6942 12.3774 17.926 10.7514C16.3407 9.29488 13.4818 8.96292 11.9372 10.7514Z" fill="#272727"/>
<path id="Vector_9" d="M171.251 11.937C167.634 8.81389 164.009 5.68397 160.391 2.56082C159.87 2.10692 159.341 1.65301 158.82 1.19911C157.085 -0.298107 154.545 -0.514898 152.831 1.19911C149.789 4.24095 146.74 7.28958 143.699 10.3314C143.251 10.7786 142.811 11.2189 142.364 11.666C140.799 13.231 140.677 16.1103 142.364 17.6549C144.051 19.2063 146.679 19.3283 148.353 17.6549C151.395 14.6131 154.443 11.5644 157.485 8.52258C157.932 8.07545 158.373 7.63509 158.82 7.18796H152.831C156.449 10.3111 160.073 13.441 163.691 16.5642L165.262 17.9259C166.936 19.3689 169.625 19.6941 171.251 17.9259C172.708 16.3406 173.04 13.4817 171.251 11.937Z" fill="#FF3434"/>
</g>
<defs>
<clipPath id="clip0_63_72">
<rect width="172.471" height="79" fill="white"/>
</clipPath>
</defs>
</svg>
