<svg xmlns="http://www.w3.org/2000/svg" width="47" height="47" viewBox="0 0 47 47" fill="none">
  <path d="M23.2186 19.3488C25.3558 19.3488 27.0884 17.6162 27.0884 15.479C27.0884 13.3418 25.3558 11.6093 23.2186 11.6093C21.0814 11.6093 19.3489 13.3418 19.3489 15.479C19.3489 17.6162 21.0814 19.3488 23.2186 19.3488Z" fill="#B7B7B7"/>
  <path d="M23.2186 29.0231C17.9945 29.0231 11.9964 31.5191 11.6094 32.9122V34.8278H34.8279V32.8929C34.4409 31.5191 28.4428 29.0231 23.2186 29.0231Z" fill="#B7B7B7"/>
  <path d="M23.2186 23.2185C27.4947 23.2185 30.9581 19.7551 30.9581 15.479C30.9581 11.2029 27.4947 7.7395 23.2186 7.7395C18.9426 7.7395 15.4791 11.2029 15.4791 15.479C15.4791 19.7551 18.9426 23.2185 23.2186 23.2185ZM23.2186 11.6093C25.347 11.6093 27.0884 13.3506 27.0884 15.479C27.0884 17.6074 25.347 19.3488 23.2186 19.3488C21.0903 19.3488 19.3489 17.6074 19.3489 15.479C19.3489 13.3506 21.0903 11.6093 23.2186 11.6093ZM23.2186 25.1534C18.0525 25.1534 7.73963 27.7461 7.73963 32.8929V38.1171C7.73963 38.4376 7.99951 38.6975 8.32009 38.6975H38.1172C38.4378 38.6975 38.6977 38.4376 38.6977 38.1171V32.8929C38.6977 27.7461 28.3848 25.1534 23.2186 25.1534ZM34.8279 34.8278H11.6094V32.9122C11.9964 31.5191 17.9945 29.0231 23.2186 29.0231C28.4428 29.0231 34.4409 31.5191 34.8279 32.8929V34.8278Z" fill="#B7B7B7"/>
</svg>