<svg width="47" height="47" viewBox="0 0 47 47" fill="none" xmlns="http://www.w3.org/2000/svg">
<g id="perm_identity/Style6">
<path id="Vector" d="M23.2188 19.3489C25.356 19.3489 27.0885 17.6163 27.0885 15.4791C27.0885 13.3419 25.356 11.6094 23.2188 11.6094C21.0815 11.6094 19.349 13.3419 19.349 15.4791C19.349 17.6163 21.0815 19.3489 23.2188 19.3489Z" fill="#FF3434"/>
<path id="Vector_2" d="M23.2188 29.0229C17.9946 29.0229 11.9965 31.5189 11.6095 32.9121V34.8276H34.828V32.8927C34.441 31.5189 28.4429 29.0229 23.2188 29.0229Z" fill="#FF3434"/>
<path id="Vector_3" d="M23.2188 23.2188C27.4948 23.2188 30.9583 19.7553 30.9583 15.4793C30.9583 11.2032 27.4948 7.73975 23.2188 7.73975C18.9427 7.73975 15.4793 11.2032 15.4793 15.4793C15.4793 19.7553 18.9427 23.2188 23.2188 23.2188ZM23.2188 11.6095C25.3471 11.6095 27.0885 13.3509 27.0885 15.4793C27.0885 17.6076 25.3471 19.349 23.2188 19.349C21.0904 19.349 19.349 17.6076 19.349 15.4793C19.349 13.3509 21.0904 11.6095 23.2188 11.6095ZM23.2188 25.1536C18.0526 25.1536 7.73975 27.7464 7.73975 32.8931V38.1173C7.73975 38.4379 7.99963 38.6978 8.32021 38.6978H38.1173C38.4379 38.6978 38.6978 38.4379 38.6978 38.1173V32.8931C38.6978 27.7464 28.3849 25.1536 23.2188 25.1536ZM34.828 34.828H11.6095V32.9125C11.9965 31.5194 17.9946 29.0234 23.2188 29.0234C28.4429 29.0234 34.441 31.5194 34.828 32.8931V34.828Z" fill="#FF3434"/>
</g>
</svg>
