<svg width="51" height="50" viewBox="0 0 51 50" fill="none" xmlns="http://www.w3.org/2000/svg">
<g id="cancel" clip-path="url(#clip0_129_1939)">
<path id="Vector" d="M35.812 14.4367C30.1095 8.73421 20.8905 8.73421 15.188 14.4367C9.48551 20.1392 9.48551 29.3582 15.188 35.0607C20.8905 40.7632 30.1095 40.7632 35.812 35.0607C41.5145 29.3582 41.5145 20.1392 35.812 14.4367ZM25.5 33.617C24.6957 33.617 24.046 32.9673 24.046 32.163L24.046 26.2027L18.0857 26.2027C17.2814 26.2027 16.6317 25.553 16.6317 24.7487C16.6317 23.9444 17.2814 23.2947 18.0857 23.2947L24.046 23.2947V17.3344C24.046 16.5301 24.6957 15.8804 25.5 15.8804C26.3043 15.8804 26.954 16.5301 26.954 17.3344V23.2947L32.9143 23.2947C33.7186 23.2947 34.3683 23.9444 34.3683 24.7487C34.3683 25.553 33.7186 26.2027 32.9143 26.2027L26.954 26.2027L26.954 32.163C26.954 32.9467 26.294 33.6067 25.5 33.617Z" fill="#D9D9D9"/>
</g>
<defs>
<clipPath id="clip0_129_1939">
<rect width="35" height="35" fill="white" transform="translate(25.5) rotate(45)"/>
</clipPath>
</defs>
</svg>
