<svg width="34" height="34" viewBox="0 0 34 34" fill="none" xmlns="http://www.w3.org/2000/svg">
<g id="thumb_up">
<path id="Vector" d="M1.41675 31.1668H7.08341V14.1668H1.41675V31.1668ZM32.5834 15.5835C32.5834 14.0252 31.3084 12.7502 29.7501 12.7502H20.8109L22.1567 6.276L22.1992 5.82266C22.1992 5.24183 21.9584 4.7035 21.5759 4.321L20.0742 2.8335L10.7526 12.1693C10.2284 12.6793 9.91675 13.3877 9.91675 14.1668V28.3335C9.91675 29.8918 11.1917 31.1668 12.7501 31.1668H25.5001C26.6759 31.1668 27.6817 30.4585 28.1067 29.4385L32.3851 19.451C32.5126 19.1252 32.5834 18.7852 32.5834 18.4168V15.5835Z" fill="#FF3434"/>
</g>
</svg>
