<svg width="34" height="34" viewBox="0 0 34 34" fill="none" xmlns="http://www.w3.org/2000/svg">
<g id="thumb_up">
<path id="Vector" d="M1.41675 31.1667H7.08341V14.1667H1.41675V31.1667ZM32.5834 15.5834C32.5834 14.025 31.3084 12.75 29.7501 12.75H20.8109L22.1567 6.27587L22.1992 5.82254C22.1992 5.24171 21.9584 4.70337 21.5759 4.32087L20.0742 2.83337L10.7526 12.1692C10.2284 12.6792 9.91675 13.3875 9.91675 14.1667V28.3334C9.91675 29.8917 11.1917 31.1667 12.7501 31.1667H25.5001C26.6759 31.1667 27.6817 30.4584 28.1067 29.4384L32.3851 19.4509C32.5126 19.125 32.5834 18.785 32.5834 18.4167V15.5834Z" fill="#B7B7B7"/>
</g>
</svg>
