<svg width="34" height="34" viewBox="0 0 34 34" fill="none" xmlns="http://www.w3.org/2000/svg">
<g id="thumb_up">
<path id="Vector" d="M1.41654 31.1667H7.08321V14.1667H1.41654V31.1667ZM32.5832 15.5833C32.5832 14.025 31.3082 12.75 29.7499 12.75H20.8107L22.1565 6.27584L22.199 5.8225C22.199 5.24167 21.9582 4.70334 21.5757 4.32084L20.074 2.83334L10.7524 12.1692C10.2282 12.6792 9.91654 13.3875 9.91654 14.1667V28.3333C9.91654 29.8917 11.1915 31.1667 12.7499 31.1667H25.4999C26.6757 31.1667 27.6815 30.4583 28.1065 29.4383L32.3849 19.4508C32.5124 19.125 32.5832 18.785 32.5832 18.4167V15.5833Z" fill="#B7B7B7"/>
</g>
</svg>
