<svg width="34" height="34" viewBox="0 0 34 34" fill="none" xmlns="http://www.w3.org/2000/svg">
<g id="thumb_up">
<path id="Vector" d="M1.41663 31.1668H7.08329V14.1668H1.41663V31.1668ZM32.5833 15.5835C32.5833 14.0252 31.3083 12.7502 29.75 12.7502H20.8108L22.1566 6.276L22.1991 5.82266C22.1991 5.24183 21.9583 4.7035 21.5758 4.321L20.0741 2.8335L10.7525 12.1693C10.2283 12.6793 9.91663 13.3877 9.91663 14.1668V28.3335C9.91663 29.8918 11.1916 31.1668 12.75 31.1668H25.5C26.6758 31.1668 27.6816 30.4585 28.1066 29.4385L32.385 19.451C32.5125 19.1252 32.5833 18.7852 32.5833 18.4168V15.5835Z" fill="#B7B7B7"/>
</g>
</svg>
