<svg width="51" height="51" viewBox="0 0 51 51" fill="none" xmlns="http://www.w3.org/2000/svg">
<g id="search">
<path id="Vector" d="M33.9502 30.7521H32.2714L31.6764 30.1783C34.2264 27.2033 35.5439 23.1446 34.8214 18.8308C33.8227 12.9233 28.8927 8.20581 22.9427 7.48331C13.9539 6.37831 6.38893 13.9433 7.49393 22.9321C8.21643 28.8821 12.9339 33.8121 18.8414 34.8108C23.1552 35.5333 27.2139 34.2158 30.1889 31.6658L30.7627 32.2608V33.9396L39.7939 42.9708C40.6652 43.8421 42.0889 43.8421 42.9602 42.9708C43.8314 42.0996 43.8314 40.6758 42.9602 39.8046L33.9502 30.7521ZM21.2002 30.7521C15.9089 30.7521 11.6377 26.4808 11.6377 21.1896C11.6377 15.8983 15.9089 11.6271 21.2002 11.6271C26.4914 11.6271 30.7627 15.8983 30.7627 21.1896C30.7627 26.4808 26.4914 30.7521 21.2002 30.7521Z" fill="#B7B7B7"/>
</g>
</svg>
