<svg width="51" height="51" viewBox="0 0 51 51" fill="none" xmlns="http://www.w3.org/2000/svg">
<g id="search">
<path id="Vector" d="M33.9502 30.7523H32.2714L31.6764 30.1786C34.2264 27.2036 35.5439 23.1448 34.8214 18.8311C33.8227 12.9236 28.8927 8.20606 22.9427 7.48356C13.9539 6.37856 6.38893 13.9436 7.49393 22.9323C8.21643 28.8823 12.9339 33.8123 18.8414 34.8111C23.1552 35.5336 27.2139 34.2161 30.1889 31.6661L30.7627 32.2611V33.9398L39.7939 42.9711C40.6652 43.8423 42.0889 43.8423 42.9602 42.9711C43.8314 42.0998 43.8314 40.6761 42.9602 39.8048L33.9502 30.7523ZM21.2002 30.7523C15.9089 30.7523 11.6377 26.4811 11.6377 21.1898C11.6377 15.8986 15.9089 11.6273 21.2002 11.6273C26.4914 11.6273 30.7627 15.8986 30.7627 21.1898C30.7627 26.4811 26.4914 30.7523 21.2002 30.7523Z" fill="#B7B7B7"/>
</g>
</svg>
