<svg width="46" height="46" viewBox="0 0 46 46" fill="none" xmlns="http://www.w3.org/2000/svg">
<g id="settings">
<path id="Vector" d="M36.685 24.8017C36.7617 24.2267 36.8 23.6325 36.8 23C36.8 22.3867 36.7617 21.7733 36.6658 21.1983L40.5567 18.17C40.9017 17.9017 40.9975 17.3842 40.7867 17.0008L37.1067 10.6375C36.8767 10.2158 36.3975 10.0817 35.9758 10.2158L31.395 12.0558C30.4367 11.3275 29.4208 10.7142 28.29 10.2542L27.6 5.38584C27.5233 4.92584 27.14 4.60001 26.68 4.60001H19.32C18.86 4.60001 18.4958 4.92584 18.4192 5.38584L17.7292 10.2542C16.5983 10.7142 15.5633 11.3467 14.6242 12.0558L10.0433 10.2158C9.62167 10.0625 9.1425 10.2158 8.9125 10.6375L5.25167 17.0008C5.02167 17.4033 5.09833 17.9017 5.48167 18.17L9.3725 21.1983C9.27667 21.7733 9.2 22.4058 9.2 23C9.2 23.5942 9.23833 24.2267 9.33417 24.8017L5.44333 27.83C5.09833 28.0983 5.0025 28.6158 5.21333 28.9992L8.89333 35.3625C9.12333 35.7842 9.6025 35.9183 10.0242 35.7842L14.605 33.9442C15.5633 34.6725 16.5792 35.2858 17.71 35.7458L18.4 40.6142C18.4958 41.0742 18.86 41.4 19.32 41.4H26.68C27.14 41.4 27.5233 41.0742 27.5808 40.6142L28.2708 35.7458C29.4017 35.2858 30.4367 34.6725 31.3758 33.9442L35.9567 35.7842C36.3783 35.9375 36.8575 35.7842 37.0875 35.3625L40.7675 28.9992C40.9975 28.5775 40.9017 28.0983 40.5375 27.83L36.685 24.8017ZM23 29.9C19.205 29.9 16.1 26.795 16.1 23C16.1 19.205 19.205 16.1 23 16.1C26.795 16.1 29.9 19.205 29.9 23C29.9 26.795 26.795 29.9 23 29.9Z" fill="#B7B7B7"/>
</g>
</svg>
