<svg width="46" height="46" viewBox="0 0 46 46" fill="none" xmlns="http://www.w3.org/2000/svg">
<g id="settings">
<path id="Vector" d="M36.6851 24.8018C36.7618 24.2268 36.8001 23.6326 36.8001 23.0001C36.8001 22.3868 36.7618 21.7734 36.666 21.1984L40.5568 18.1701C40.9018 17.9018 40.9976 17.3843 40.7868 17.0009L37.1068 10.6376C36.8768 10.2159 36.3976 10.0818 35.976 10.2159L31.3951 12.0559C30.4368 11.3276 29.421 10.7143 28.2901 10.2543L27.6001 5.38593C27.5235 4.92593 27.1401 4.6001 26.6801 4.6001H19.3201C18.8601 4.6001 18.496 4.92593 18.4193 5.38593L17.7293 10.2543C16.5985 10.7143 15.5635 11.3468 14.6243 12.0559L10.0435 10.2159C9.62179 10.0626 9.14263 10.2159 8.91263 10.6376L5.2518 17.0009C5.0218 17.4034 5.09846 17.9018 5.4818 18.1701L9.37263 21.1984C9.27679 21.7734 9.20013 22.4059 9.20013 23.0001C9.20013 23.5943 9.23846 24.2268 9.33429 24.8018L5.44346 27.8301C5.09846 28.0984 5.00263 28.6159 5.21346 28.9993L8.89346 35.3626C9.12346 35.7843 9.60263 35.9184 10.0243 35.7843L14.6051 33.9443C15.5635 34.6726 16.5793 35.2859 17.7101 35.7459L18.4001 40.6143C18.496 41.0743 18.8601 41.4001 19.3201 41.4001H26.6801C27.1401 41.4001 27.5235 41.0743 27.581 40.6143L28.271 35.7459C29.4018 35.2859 30.4368 34.6726 31.376 33.9443L35.9568 35.7843C36.3785 35.9376 36.8576 35.7843 37.0876 35.3626L40.7676 28.9993C40.9976 28.5776 40.9018 28.0984 40.5376 27.8301L36.6851 24.8018ZM23.0001 29.9001C19.2051 29.9001 16.1001 26.7951 16.1001 23.0001C16.1001 19.2051 19.2051 16.1001 23.0001 16.1001C26.7951 16.1001 29.9001 19.2051 29.9001 23.0001C29.9001 26.7951 26.7951 29.9001 23.0001 29.9001Z" fill="#B7B7B7"/>
</g>
</svg>
