<svg width="46" height="46" viewBox="0 0 46 46" fill="none" xmlns="http://www.w3.org/2000/svg">
<g id="settings">
<path id="Vector" d="M36.6851 24.8016C36.7618 24.2266 36.8001 23.6325 36.8001 23C36.8001 22.3866 36.7618 21.7733 36.666 21.1983L40.5568 18.17C40.9018 17.9016 40.9976 17.3841 40.7868 17.0008L37.1068 10.6375C36.8768 10.2158 36.3976 10.0816 35.976 10.2158L31.3951 12.0558C30.4368 11.3275 29.421 10.7141 28.2901 10.2541L27.6001 5.38581C27.5235 4.92581 27.1401 4.59998 26.6801 4.59998H19.3201C18.8601 4.59998 18.496 4.92581 18.4193 5.38581L17.7293 10.2541C16.5985 10.7141 15.5635 11.3466 14.6243 12.0558L10.0435 10.2158C9.62179 10.0625 9.14263 10.2158 8.91263 10.6375L5.2518 17.0008C5.0218 17.4033 5.09846 17.9016 5.4818 18.17L9.37263 21.1983C9.27679 21.7733 9.20013 22.4058 9.20013 23C9.20013 23.5941 9.23846 24.2266 9.33429 24.8016L5.44346 27.83C5.09846 28.0983 5.00263 28.6158 5.21346 28.9991L8.89346 35.3625C9.12346 35.7841 9.60263 35.9183 10.0243 35.7841L14.6051 33.9441C15.5635 34.6725 16.5793 35.2858 17.7101 35.7458L18.4001 40.6141C18.496 41.0741 18.8601 41.4 19.3201 41.4H26.6801C27.1401 41.4 27.5235 41.0741 27.581 40.6141L28.271 35.7458C29.4018 35.2858 30.4368 34.6725 31.376 33.9441L35.9568 35.7841C36.3785 35.9375 36.8576 35.7841 37.0876 35.3625L40.7676 28.9991C40.9976 28.5775 40.9018 28.0983 40.5376 27.83L36.6851 24.8016ZM23.0001 29.9C19.2051 29.9 16.1001 26.795 16.1001 23C16.1001 19.205 19.2051 16.1 23.0001 16.1C26.7951 16.1 29.9001 19.205 29.9001 23C29.9001 26.795 26.7951 29.9 23.0001 29.9Z" fill="#B7B7B7"/>
</g>
</svg>
