<svg width="23" height="22" viewBox="0 0 23 22" fill="none" xmlns="http://www.w3.org/2000/svg">
<g id="phone">
<path id="Vector" d="M6.62903 9.63954C7.91548 12.1678 9.9881 14.2315 12.5163 15.5269L14.4818 13.5614C14.723 13.3202 15.0803 13.2398 15.393 13.347C16.3936 13.6776 17.4746 13.8563 18.5823 13.8563C19.0737 13.8563 19.4757 14.2583 19.4757 14.7496V17.8675C19.4757 18.3589 19.0737 18.7609 18.5823 18.7609C10.1936 18.7609 3.39502 11.9623 3.39502 3.57355C3.39502 3.08219 3.79704 2.68018 4.28839 2.68018H7.41519C7.90655 2.68018 8.30856 3.08219 8.30856 3.57355C8.30856 4.69026 8.48724 5.76231 8.81779 6.76289C8.91606 7.07557 8.84459 7.42398 8.59444 7.67412L6.62903 9.63954Z" fill="#B7B7B7"/>
</g>
</svg>
