<svg width="349" height="560" viewBox="0 0 349 560" fill="none" xmlns="http://www.w3.org/2000/svg">
<path d="M170.354 559.717C137.627 559.717 114.794 559.266 112.967 529.873C109.846 474.847 109.846 309.467 112.967 254.365C114.794 224.972 137.703 219.936 170.354 219.936C203.006 219.936 229.645 223.619 227.742 252.937C224.621 307.963 224.621 472.441 227.742 527.468C229.568 556.86 203.006 559.567 170.354 559.567V559.717Z" fill="#272727"/>
<path d="M335.408 133.135C295.105 98.3212 254.727 63.4318 214.424 28.6178C208.613 23.5581 202.726 18.4984 196.914 13.4386C177.593 -3.25091 149.291 -5.66749 130.196 13.4386C96.3086 47.3464 62.3457 81.3296 28.4582 115.237C23.477 120.222 18.5712 125.13 13.59 130.114C-3.84436 147.559 -5.20288 179.654 13.59 196.873C32.3828 214.166 61.6664 215.526 80.3083 196.873C114.196 162.965 148.159 128.982 182.046 95.0739C187.028 90.0897 191.933 85.181 196.914 80.1968H130.196C170.499 115.011 210.877 149.9 251.18 184.714L268.69 199.893C287.331 215.979 317.294 219.604 335.408 199.893C351.635 182.222 355.333 150.353 335.408 133.135Z" fill="#FF3434"/>
</svg>
